<svg width="49" height="49" viewBox="0 0 49 49" fill="none" xmlns="http://www.w3.org/2000/svg">
<path d="M35.133 0C43.4385 0 49 5.831 49 14.504V34.5229C49 43.1715 43.4385 49 35.133 49H13.8915C5.586 49 0 43.1715 0 34.5229V14.504C0 5.831 5.586 0 13.8915 0H35.133ZM31.8745 17.079C31.0415 16.2435 29.694 16.2435 28.8365 17.079L24.5 21.4375L20.139 17.079C19.2815 16.2435 17.934 16.2435 17.101 17.079C16.268 17.912 16.268 19.284 17.101 20.1145L21.462 24.478L17.101 28.8144C16.268 29.6719 16.268 31.0195 17.101 31.85C17.5175 32.2665 18.081 32.4894 18.62 32.4894C19.1835 32.4894 19.7225 32.2665 20.139 31.85L24.5 27.516L28.861 31.85C29.2775 32.2934 29.8165 32.4894 30.3555 32.4894C30.919 32.4894 31.458 32.2665 31.8745 31.85C32.7075 31.0195 32.7075 29.672 31.8745 28.839L27.5135 24.478L31.8745 20.1145C32.7075 19.284 32.7075 17.912 31.8745 17.079Z" fill="#DD3D3D" fill-opacity="0.8"/>
</svg>
