<svg width="80" height="80" viewBox="0 0 80 80" fill="none" xmlns="http://www.w3.org/2000/svg">
<path fill-rule="evenodd" clip-rule="evenodd" d="M77.1429 2.85714H2.85718V0H77.1429V2.85714Z" fill="#D9D9D9"/>
<path fill-rule="evenodd" clip-rule="evenodd" d="M2.85714 0L2.85714 80H0L0 0H2.85714Z" fill="#D9D9D9"/>
<path fill-rule="evenodd" clip-rule="evenodd" d="M80 0L80 80H77.1428L77.1428 0H80Z" fill="#D9D9D9"/>
<path fill-rule="evenodd" clip-rule="evenodd" d="M77.1429 80H2.85718V77.1429H77.1429V80Z" fill="#D9D9D9"/>
<path d="M8.0094 52.5238L15.9194 40.1688L8.1144 28.0238H11.5794L17.8094 38.1388H18.2644L24.5294 28.0238H27.9594L20.1894 40.1688L28.0994 52.5238H24.6694L18.2644 42.1988H17.8094L11.4394 52.5238H8.0094ZM30.3287 52.5238L38.2387 40.1688L30.4337 28.0238H33.8987L40.1287 38.1388H40.5837L46.8487 28.0238H50.2787L42.5087 40.1688L50.4187 52.5238H46.9887L40.5837 42.1988H40.1287L33.7587 52.5238H30.3287ZM54.3281 52.5238V28.0238H57.2681V49.8638H69.6581V52.5238H54.3281Z" fill="#D9D9D9"/>
</svg>
