<svg width="80" height="80" viewBox="0 0 80 80" fill="none" xmlns="http://www.w3.org/2000/svg">
<path fill-rule="evenodd" clip-rule="evenodd" d="M77.1429 2.85714H2.85718V0H77.1429V2.85714Z" fill="#D9D9D9"/>
<path fill-rule="evenodd" clip-rule="evenodd" d="M2.85714 0L2.85714 80H0L0 0H2.85714Z" fill="#D9D9D9"/>
<path fill-rule="evenodd" clip-rule="evenodd" d="M80 0L80 80H77.1428L77.1428 0H80Z" fill="#D9D9D9"/>
<path fill-rule="evenodd" clip-rule="evenodd" d="M77.1429 80H2.85718V77.1429H77.1429V80Z" fill="#D9D9D9"/>
<path d="M38.9845 53.0138C37.2112 53.0138 35.6245 52.6988 34.2245 52.0688C32.8245 51.4388 31.7162 50.4938 30.8995 49.2338C30.1062 47.9505 29.7095 46.3521 29.7095 44.4388V43.7038H32.6145V44.4388C32.6145 46.4688 33.2095 47.9855 34.3995 48.9888C35.5895 49.9688 37.1179 50.4588 38.9845 50.4588C40.8979 50.4588 42.3562 50.0271 43.3595 49.1638C44.3629 48.3005 44.8645 47.2155 44.8645 45.9088C44.8645 44.9988 44.6312 44.2755 44.1645 43.7388C43.7212 43.2021 43.0912 42.7705 42.2745 42.4438C41.4579 42.0938 40.5012 41.7905 39.4045 41.5338L37.5845 41.0788C36.1612 40.7055 34.9012 40.2505 33.8045 39.7138C32.7079 39.1771 31.8445 38.4771 31.2145 37.6138C30.6079 36.7271 30.3045 35.5955 30.3045 34.2188C30.3045 32.8421 30.6429 31.6521 31.3195 30.6488C32.0195 29.6455 32.9879 28.8755 34.2245 28.3388C35.4845 27.8021 36.9312 27.5338 38.5645 27.5338C40.2212 27.5338 41.7029 27.8255 43.0095 28.4088C44.3395 28.9688 45.3779 29.8088 46.1245 30.9288C46.8945 32.0255 47.2795 33.4138 47.2795 35.0938V36.5638H44.3745V35.0938C44.3745 33.9038 44.1179 32.9471 43.6045 32.2238C43.1145 31.5005 42.4262 30.9638 41.5395 30.6138C40.6762 30.2638 39.6845 30.0888 38.5645 30.0888C36.9545 30.0888 35.6595 30.4505 34.6795 31.1738C33.6995 31.8738 33.2095 32.8771 33.2095 34.1838C33.2095 35.0471 33.4195 35.7471 33.8395 36.2838C34.2595 36.8205 34.8545 37.2638 35.6245 37.6138C36.3945 37.9405 37.3162 38.2321 38.3895 38.4888L40.2095 38.9438C41.6329 39.2471 42.9045 39.6671 44.0245 40.2038C45.1679 40.7171 46.0779 41.4288 46.7545 42.3388C47.4312 43.2255 47.7695 44.3921 47.7695 45.8388C47.7695 47.2855 47.4079 48.5455 46.6845 49.6188C45.9612 50.6921 44.9345 51.5321 43.6045 52.1388C42.2979 52.7221 40.7579 53.0138 38.9845 53.0138Z" fill="#D9D9D9"/>
</svg>
