<svg width="80" height="80" viewBox="0 0 80 80" fill="none" xmlns="http://www.w3.org/2000/svg">
<path fill-rule="evenodd" clip-rule="evenodd" d="M77.1429 2.85714H2.85718V0H77.1429V2.85714Z" fill="#D9D9D9"/>
<path fill-rule="evenodd" clip-rule="evenodd" d="M2.85714 0L2.85714 80H0L0 0H2.85714Z" fill="#D9D9D9"/>
<path fill-rule="evenodd" clip-rule="evenodd" d="M80 0L80 80H77.1428L77.1428 0H80Z" fill="#D9D9D9"/>
<path fill-rule="evenodd" clip-rule="evenodd" d="M77.1429 80H2.85718V77.1429H77.1429V80Z" fill="#D9D9D9"/>
<path d="M19.1691 52.5238L27.0791 40.1688L19.2741 28.0238H22.7391L28.9691 38.1388H29.4241L35.6891 28.0238H39.1191L31.3491 40.1688L39.2591 52.5238H35.8291L29.4241 42.1988H28.9691L22.5991 52.5238H19.1691ZM43.1684 52.5238V28.0238H46.1084V49.8638H58.4984V52.5238H43.1684Z" fill="#D9D9D9"/>
</svg>
