<svg width="48" height="49" viewBox="0 0 48 49" fill="none" xmlns="http://www.w3.org/2000/svg">
<path fill-rule="evenodd" clip-rule="evenodd" d="M24 6.1416C19.1112 6.1416 18.4992 6.162 16.5792 6.2496C14.6628 6.3372 13.3536 6.642 12.2088 7.0872C11.0088 7.5384 9.9204 8.2464 9.0204 9.1632C8.10507 10.0622 7.39663 11.1498 6.9444 12.3504C6.5016 13.4952 6.1956 14.8056 6.108 16.722C6.0216 18.6408 6 19.2516 6 24.1416C6 29.0316 6.0204 29.6424 6.108 31.5624C6.1956 33.4788 6.5004 34.788 6.9456 35.9328C7.3968 37.1328 8.1048 38.2212 9.0216 39.1212C9.92058 40.0365 11.0082 40.7449 12.2088 41.1972C13.3536 41.6412 14.6628 41.946 16.5792 42.0336C18.4992 42.1212 19.1112 42.1416 24 42.1416C28.8888 42.1416 29.5008 42.1212 31.4208 42.0336C33.3372 41.946 34.6464 41.6412 35.7912 41.196C36.9912 40.7448 38.0796 40.0368 38.9796 39.12C39.8949 38.221 40.6034 37.1334 41.0556 35.9328C41.4996 34.788 41.8044 33.4788 41.892 31.5624C41.9796 29.6424 42 29.0304 42 24.1416C42 19.2528 41.9796 18.6408 41.892 16.7208C41.8044 14.8044 41.4996 13.4952 41.0544 12.3504C40.6025 11.1493 39.894 10.0612 38.9784 9.162C38.0794 8.24667 36.9918 7.53823 35.7912 7.086C34.6464 6.6432 33.336 6.3372 31.4196 6.2496C29.5008 6.1632 28.89 6.1416 24 6.1416ZM24 9.3852C28.806 9.3852 29.376 9.4032 31.2744 9.4896C33.0288 9.57 33.9816 9.8616 34.6164 10.11C35.4564 10.4352 36.0564 10.8264 36.6864 11.4552C37.3164 12.0852 37.7064 12.6852 38.0316 13.5252C38.2788 14.16 38.5716 15.1128 38.652 16.8672C38.7384 18.7656 38.7564 19.3356 38.7564 24.1416C38.7564 28.9476 38.7384 29.5176 38.652 31.416C38.5716 33.1704 38.28 34.1232 38.0316 34.758C37.7435 35.5399 37.2839 36.2472 36.6864 36.828C36.1057 37.4256 35.3983 37.8853 34.6164 38.1732C33.9816 38.4204 33.0288 38.7132 31.2744 38.7936C29.376 38.88 28.8072 38.898 24 38.898C19.1928 38.898 18.624 38.88 16.7256 38.7936C14.9712 38.7132 14.0184 38.4216 13.3836 38.1732C12.6017 37.8851 11.8944 37.4255 11.3136 36.828C10.7162 36.2471 10.2566 35.5398 9.9684 34.758C9.7212 34.1232 9.4284 33.1704 9.348 31.416C9.2616 29.5176 9.2436 28.9476 9.2436 24.1416C9.2436 19.3356 9.2616 18.7656 9.348 16.8672C9.4284 15.1128 9.72 14.16 9.9684 13.5252C10.2936 12.6852 10.6848 12.0852 11.3136 11.4552C11.8943 10.8577 12.6017 10.398 13.3836 10.11C14.0184 9.8628 14.9712 9.57 16.7256 9.4896C18.624 9.4032 19.194 9.3852 24 9.3852Z" fill="#D9D9D9"/>
<path fill-rule="evenodd" clip-rule="evenodd" d="M23.9981 30.1472C23.2094 30.1472 22.4284 29.9918 21.6997 29.69C20.971 29.3882 20.3089 28.9458 19.7512 28.3881C19.1935 27.8304 18.7511 27.1683 18.4493 26.4396C18.1474 25.7109 17.9921 24.9299 17.9921 24.1412C17.9921 23.3525 18.1474 22.5715 18.4493 21.8428C18.7511 21.1141 19.1935 20.452 19.7512 19.8943C20.3089 19.3366 20.971 18.8942 21.6997 18.5924C22.4284 18.2905 23.2094 18.1352 23.9981 18.1352C25.591 18.1352 27.1186 18.768 28.245 19.8943C29.3713 21.0206 30.0041 22.5483 30.0041 24.1412C30.0041 25.7341 29.3713 27.2617 28.245 28.3881C27.1186 29.5144 25.591 30.1472 23.9981 30.1472ZM23.9981 14.8892C21.5443 14.8892 19.191 15.8639 17.4559 17.599C15.7209 19.3341 14.7461 21.6874 14.7461 24.1412C14.7461 26.595 15.7209 28.9482 17.4559 30.6833C19.191 32.4184 21.5443 33.3932 23.9981 33.3932C26.4519 33.3932 28.8052 32.4184 30.5402 30.6833C32.2753 28.9482 33.2501 26.595 33.2501 24.1412C33.2501 21.6874 32.2753 19.3341 30.5402 17.599C28.8052 15.8639 26.4519 14.8892 23.9981 14.8892ZM35.9417 14.7212C35.9417 15.3012 35.7113 15.8575 35.3011 16.2676C34.891 16.6778 34.3347 16.9082 33.7547 16.9082C33.1747 16.9082 32.6184 16.6778 32.2082 16.2676C31.7981 15.8575 31.5677 15.3012 31.5677 14.7212C31.5677 14.1412 31.7981 13.5849 32.2082 13.1747C32.6184 12.7646 33.1747 12.5342 33.7547 12.5342C34.3347 12.5342 34.891 12.7646 35.3011 13.1747C35.7113 13.5849 35.9417 14.1412 35.9417 14.7212Z" fill="#D9D9D9"/>
</svg>
