<svg width="36" height="27" viewBox="0 0 36 27" fill="none" xmlns="http://www.w3.org/2000/svg">
<path d="M32.2574 0H3.74257C1.72277 0 0 1.664 0 3.744V22.9989C0 25.0194 1.66337 26.7429 3.74257 26.7429H32.2574C34.2772 26.7429 36 25.0789 36 22.9989V3.68457C36 1.664 34.2772 0 32.2574 0ZM32.2574 2.67429C32.3168 2.67429 32.3762 2.67429 32.4356 2.67429L18 11.9451L3.56436 2.67429C3.62376 2.67429 3.68317 2.67429 3.74257 2.67429H32.2574ZM32.2574 23.9497H3.74257C3.14852 23.9497 2.67327 23.4743 2.67327 22.88V5.28914L16.5743 14.2034C16.9901 14.5006 17.4653 14.6194 17.9406 14.6194C18.4158 14.6194 18.8911 14.5006 19.3069 14.2034L33.2079 5.28914V22.9394C33.3267 23.5337 32.8515 23.9497 32.2574 23.9497Z" fill="#D9D9D9"/>
</svg>
