<svg width="39" height="39" viewBox="0 0 39 39" fill="none" xmlns="http://www.w3.org/2000/svg">
<path d="M27.963 0C34.5735 0 39 4.641 39 11.544V27.4774C39 34.361 34.5735 39 27.963 39H11.0565C4.446 39 0 34.361 0 27.4774V11.544C0 4.641 4.446 0 11.0565 0H27.963ZM25.3695 13.5935C24.7065 12.9285 23.634 12.9285 22.9515 13.5935L19.5 17.0625L16.029 13.5935C15.3465 12.9285 14.274 12.9285 13.611 13.5935C12.948 14.2565 12.948 15.3485 13.611 16.0095L17.082 19.4825L13.611 22.9339C12.948 23.6164 12.948 24.689 13.611 25.35C13.9425 25.6815 14.391 25.859 14.82 25.859C15.2685 25.859 15.6975 25.6815 16.029 25.35L19.5 21.9005L22.971 25.35C23.3025 25.703 23.7315 25.859 24.1605 25.859C24.609 25.859 25.038 25.6815 25.3695 25.35C26.0325 24.689 26.0325 23.6165 25.3695 22.9535L21.8985 19.4825L25.3695 16.0095C26.0325 15.3485 26.0325 14.2565 25.3695 13.5935Z" fill="#FFE61B"/>
</svg>
