<svg width="48" height="49" viewBox="0 0 48 49" fill="none" xmlns="http://www.w3.org/2000/svg">
<path d="M24.0755 6.72266C14.1952 6.72266 6.15445 14.4673 6.15097 23.9852C6.14865 27.029 6.97548 29.9996 8.54323 32.6159L6 41.5614L15.5028 39.161C18.1462 40.5437 21.0854 41.2649 24.0685 41.2629H24.0755C33.9557 41.2629 41.9965 33.5171 42 23.9992C42.0023 19.3889 40.1396 15.0491 36.7544 11.787C33.3705 8.52382 28.8705 6.72382 24.0755 6.72266ZM24.0755 38.3469H24.0697C21.3964 38.3469 18.7742 37.6548 16.4865 36.3472L15.9406 36.0359L10.3037 37.4597L11.8088 32.1642L11.4546 31.6219C9.96686 29.3529 9.17489 26.6985 9.17613 23.9852C9.17961 16.0734 15.864 9.63866 24.0813 9.63866C28.0599 9.63982 31.8004 11.1344 34.6142 13.846C37.428 16.5576 38.976 20.1634 38.9737 23.998C38.9702 31.9099 32.287 38.3469 24.0743 38.3469H24.0755ZM32.2475 27.5992C31.7992 27.3843 29.5974 26.3403 29.1863 26.1952C28.7764 26.0523 28.4779 25.978 28.1795 26.41C27.8822 26.842 27.0228 27.814 26.7627 28.1009C26.5003 28.3889 26.239 28.4237 25.7907 28.2089C25.3425 27.9929 23.899 27.5376 22.1895 26.0674C20.8575 24.9247 19.9587 23.5126 19.6974 23.0794C19.4361 22.6486 19.6695 22.4152 19.8937 22.2003C20.0946 22.0087 20.3419 21.6975 20.5649 21.4455C20.7879 21.1935 20.8622 21.0135 21.0132 20.7255C21.1618 20.4387 21.0875 20.1855 20.9748 19.9707C20.8622 19.7535 19.968 17.6307 19.5929 16.7678C19.2306 15.927 18.8613 16.0397 18.5861 16.0258C18.3248 16.0141 18.0275 16.0107 17.7267 16.0107C17.4306 16.0107 16.944 16.1187 16.5329 16.5507C16.123 16.9827 14.9652 18.0255 14.9652 20.1483C14.9652 22.2723 16.5701 24.3232 16.7942 24.6112C17.0183 24.898 19.9529 29.2563 24.4459 31.126C25.5143 31.5685 26.3481 31.8344 26.9996 32.0341C28.0726 32.3628 29.0493 32.3152 29.8204 32.2049C30.6797 32.0806 32.4705 31.162 32.8421 30.1552C33.216 29.1483 33.216 28.2843 33.1045 28.1043C32.9954 27.9243 32.6957 27.8163 32.2475 27.5992Z" fill="#D9D9D9"/>
</svg>
