<svg width="39" height="39" viewBox="0 0 39 39" fill="none" xmlns="http://www.w3.org/2000/svg">
<path d="M28.587 0C35.217 0 39 3.744 39 10.3935V28.6065C39 35.217 35.2365 39 28.6065 39H10.3935C3.744 39 0 35.217 0 28.6065V10.3935C0 3.744 3.744 0 10.3935 0H28.587ZM19.5 17.862C18.603 17.862 19.5 17.862 18.525 17.862H17.862H12.3435C11.9145 17.862 11.505 18.0375 11.193 18.33C10.9005 18.642 10.725 19.0496 10.725 19.4805C10.725 20.3775 11.4465 21.099 12.3435 21.1185H17.862H18.6217C17.4738 21.1185 18.603 21.1185 19.5 21.1185C20.397 21.1185 21.191 21.1185 20.3819 21.1185H21.099H26.637C27.534 21.099 28.2555 20.3775 28.2555 19.4805C28.2555 18.5835 27.534 17.862 26.637 17.862H21.099H20.475C19.5 17.862 20.397 17.862 19.5 17.862Z" fill="#FFE61B"/>
</svg>
